Coordinates
version=1
nRows=7
nColumns=40
inDegrees=yes

Units are S.I. units (second, meters, Newtons, ...)
Angles are in degrees.

endheader
time	pelvis_tilt	pelvis_list	pelvis_rotation	pelvis_tx	pelvis_ty	pelvis_tz	hip_flexion_r	hip_adduction_r	hip_rotation_r	knee_angle_r	knee_angle_r_beta	ankle_angle_r	subtalar_angle_r	mtp_angle_r	hip_flexion_l	hip_adduction_l	hip_rotation_l	knee_angle_l	knee_angle_l_beta	ankle_angle_l	subtalar_angle_l	mtp_angle_l	lumbar_extension	lumbar_bending	lumbar_rotation	arm_flex_r	arm_add_r	arm_rot_r	elbow_flex_r	pro_sup_r	wrist_flex_r	wrist_dev_r	arm_flex_l	arm_add_l	arm_rot_l	elbow_flex_l	pro_sup_l	wrist_flex_l	wrist_dev_l
      0.30000000	     -0.24065248	     -0.33515899	      8.68586365	     -0.63872577	      0.89035283	     -1.46505991	     28.59312409	     -4.84271634	    -15.22683886	    -33.08147746	     -0.57738070	      4.39646940	    -12.54241186	     17.02003958	     -1.55905601	      0.95529855	      9.25481415	    -25.71568667	     -0.44882340	     13.71315520	      1.77201710	     -7.60823503	     -6.76054691	     -0.70744054	    -11.75399411	     -6.15847070	     -6.79374150	    -14.27085557	     20.03975959	     89.95437384	      0.00000000	      0.00000000	     10.38444475	     14.69912192	     22.34451240	     47.23750934	     89.95437384	      0.00000000	      0.00000000
      0.31000000	     -0.51369099	     -0.18134431	      9.06681519	     -0.62768719	      0.88898717	     -1.46557798	     28.87134694	     -5.11958465	    -15.84851470	    -30.01015718	     -0.52377605	      5.05028950	    -11.11435180	     16.70076633	     -2.10917303	      0.98499033	      9.37971555	    -25.61847386	     -0.44712672	     13.49517526	      1.27308345	     -7.64353765	     -6.55350693	     -0.91603302	    -12.16345841	     -6.47254771	     -6.67755939	    -14.60458007	     19.59270195	     89.95437384	      0.00000000	      0.00000000	     10.65421481	     14.97408239	     22.22303255	     48.30995221	     89.95437384	      0.00000000	      0.00000000
      0.32000000	     -0.94644750	      0.06871182	      9.40122459	     -0.61667646	      0.88733387	     -1.46597125	     29.36369325	     -5.48199437	    -16.41687298	    -27.23926595	     -0.47541488	      5.54450773	     -9.95003544	     16.36504655	     -2.45949379	      0.88207971	      9.38199979	    -25.59064265	     -0.44664097	     13.26074804	      0.74607977	     -7.67292205	     -6.17831025	     -1.25861972	    -12.51696032	     -6.84483922	     -6.58449372	    -14.77233170	     19.22934822	     89.95437384	      0.00000000	      0.00000000	     10.89744959	     15.25518145	     22.08212976	     49.31026920	     89.95437384	      0.00000000	      0.00000000
      0.33000000	     -1.00678771	      0.04443145	      9.85572899	     -0.60501503	      0.88609321	     -1.46628606	     29.35334809	     -5.73357112	    -18.05669657	    -24.77592373	     -0.43242144	      6.22347501	     -7.74417752	     15.54886258	     -3.10798260	      1.33756298	      9.79335290	    -25.73499028	     -0.44916031	     12.92589905	     -0.52219180	     -7.90180091	     -6.12659491	     -1.24625792	    -12.96075500	     -7.20131283	     -6.48699136	    -15.01412828	     18.91084428	     89.95437384	      0.00000000	      0.00000000	     11.09865375	     15.43854300	     22.12086655	     50.30666932	     89.95437384	      0.00000000	      0.00000000
      0.34000000	     -1.47667844	      0.19484334	     10.12912508	     -0.59358237	      0.88425572	     -1.46621768	     29.95448092	     -5.96451900	    -18.74956091	    -22.81342879	     -0.39816945	      6.56788598	     -6.76358713	     15.17320167	     -3.32042529	      1.36949488	      9.63261843	    -25.91247524	     -0.45225801	     12.62588112	     -0.93619021	     -7.92600445	     -5.64255661	     -1.51550181	    -13.21868414	     -7.63452696	     -6.37905035	    -15.19541917	     18.69266643	     89.95437384	      0.00000000	      0.00000000	     11.22719166	     15.70471721	     21.97965646	     51.19980626	     89.95437384	      0.00000000	      0.00000000
      0.35000000	     -1.55703805	      0.05496227	     10.62947774	     -0.58164661	      0.88288018	     -1.46639922	     30.08536449	     -6.22136002	    -20.96285977	    -21.38190670	     -0.37318467	      7.19672419	     -3.82546432	     13.30852115	     -3.76243073	      2.00723251	      9.88176855	    -26.35274868	     -0.45994223	     12.14125014	     -2.34182229	     -8.37627801	     -5.51534387	     -1.36463094	    -13.67148125	     -7.95975755	     -6.29034629	    -15.56746965	     18.42414700	     89.95437384	      0.00000000	      0.00000000	     11.35729858	     15.85660080	     21.97996132	     52.02430619	     89.95437384	      0.00000000	      0.00000000
      0.36000000	     -1.88732795	      0.12748508	     10.92509851	     -0.56977554	      0.88126486	     -1.46631128	     30.49724783	     -6.28560809	    -21.46187408	    -20.18374686	     -0.35227284	      7.39305744	     -3.34102090	     12.99240042	     -4.03496306	      2.16431118	      9.55166021	    -26.66695386	     -0.46542615	     11.77281971	     -2.40357491	     -8.34830857	     -5.14872825	     -1.51200598	    -13.95794520	     -8.35641524	     -6.21238707	    -15.68014262	     18.26227914	     89.95437384	      0.00000000	      0.00000000	     11.37437264	     16.05214532	     21.91013717	     52.78850265	     89.95437384	      0.00000000	      0.00000000
